<svg xmlns="http://www.w3.org/2000/svg" width="375" viewBox="0 0 375 375" height="375" version="1.0"><path fill="#072B5B" d="M 86.863281 44.09375 L 288.582031 44.09375 L 288.582031 245.816406 L 86.863281 245.816406 L 86.863281 44.09375"/><g fill="#FFF"><g><g><path d="M 63.773438 0 L 54.207031 -31.609375 L 35.074219 -95.382812 L 2.355469 -95.382812 L 36.183594 0 Z M 76.113281 -12.476562 L 62.523438 -57.394531 L 74.03125 -95.382812 L 105.363281 -95.382812 Z M 76.113281 -12.476562" transform="translate(133.568 199.843)"/></g></g></g><g fill="#072B5B"><g><g><path d="M 30.515625 -18.671875 L 28.382812 -5.441406 C 28.167969 -4.109375 27.367188 -3.09375 26.035156 -3.09375 L 9.710938 -3.09375 C 8.375 -3.09375 7.574219 -4.109375 7.363281 -5.441406 L 5.226562 -18.671875 L 2.132812 -18.671875 L 4.269531 -5.441406 C 4.773438 -2.292969 6.5625 0 9.710938 0 L 26.035156 0 C 29.183594 0 30.96875 -2.292969 31.476562 -5.441406 L 33.609375 -18.671875 Z M 30.515625 -18.671875" transform="translate(61.367 286.457)"/></g></g></g><g fill="#072B5B"><g><g><path d="M 28.167969 -18.671875 L 7.574219 -18.671875 C 4.429688 -18.671875 2.132812 -16.378906 2.132812 -13.230469 L 2.132812 -5.441406 C 2.132812 -2.292969 4.429688 0 7.574219 0 L 28.167969 0 C 31.316406 0 33.609375 -2.292969 33.609375 -5.441406 L 33.609375 -13.230469 C 33.609375 -16.378906 31.316406 -18.671875 28.167969 -18.671875 Z M 5.226562 -5.441406 L 5.226562 -13.230469 C 5.226562 -14.5625 6.242188 -15.578125 7.574219 -15.578125 L 28.167969 -15.578125 C 29.503906 -15.578125 30.515625 -14.5625 30.515625 -13.230469 L 30.515625 -5.441406 C 30.515625 -4.109375 29.503906 -3.09375 28.167969 -3.09375 L 7.574219 -3.09375 C 6.242188 -3.09375 5.226562 -4.109375 5.226562 -5.441406 Z M 5.226562 -5.441406" transform="translate(97.098 286.457)"/></g></g></g><g fill="#072B5B"><g><g><path d="M 2.132812 0 L 5.226562 0 L 5.226562 -7.789062 L 24.273438 -7.789062 C 27.875 -7.789062 30.515625 -5.148438 30.515625 -1.546875 L 30.515625 0 L 33.609375 0 L 33.609375 -1.546875 C 33.609375 -4.347656 32.570312 -6.75 30.808594 -8.402344 C 32.515625 -9.28125 33.609375 -11.070312 33.609375 -13.230469 C 33.609375 -16.378906 31.316406 -18.671875 28.167969 -18.671875 L 2.132812 -18.671875 Z M 5.226562 -10.882812 L 5.226562 -15.578125 L 28.167969 -15.578125 C 29.503906 -15.578125 30.515625 -14.5625 30.515625 -13.230469 C 30.515625 -11.898438 29.503906 -10.882812 28.167969 -10.882812 Z M 5.226562 -10.882812" transform="translate(132.829 286.457)"/></g></g></g><g fill="#072B5B"><g><g><path d="M 17.390625 0 L 20.484375 0 L 20.484375 -15.578125 L 35.742188 -15.578125 L 35.742188 -18.671875 L 2.132812 -18.671875 L 2.132812 -15.578125 L 17.390625 -15.578125 Z M 17.390625 0" transform="translate(168.56 286.457)"/></g></g></g><g fill="#072B5B"><g><g><path d="M 2.132812 -13.230469 L 2.132812 -5.441406 C 2.132812 -2.292969 4.429688 0 7.574219 0 L 33.609375 0 L 33.609375 -3.09375 L 7.574219 -3.09375 C 6.242188 -3.09375 5.226562 -4.109375 5.226562 -5.441406 L 5.226562 -7.789062 L 33.609375 -7.789062 L 33.609375 -10.882812 L 5.226562 -10.882812 L 5.226562 -13.230469 C 5.226562 -14.5625 6.242188 -15.578125 7.574219 -15.578125 L 33.609375 -15.578125 L 33.609375 -18.671875 L 7.574219 -18.671875 C 4.429688 -18.671875 2.132812 -16.378906 2.132812 -13.230469 Z M 2.132812 -13.230469" transform="translate(206.424 286.457)"/></g></g></g><g fill="#072B5B"><g><g><path d="M 30.515625 -13.230469 L 30.515625 0 L 33.609375 0 L 33.609375 -13.230469 C 33.609375 -16.378906 31.316406 -18.671875 28.167969 -18.671875 L 7.574219 -18.671875 C 4.429688 -18.671875 2.132812 -16.378906 2.132812 -13.230469 L 2.132812 0 L 5.226562 0 L 5.226562 -13.230469 C 5.226562 -14.5625 6.242188 -15.578125 7.574219 -15.578125 L 28.167969 -15.578125 C 29.503906 -15.578125 30.515625 -14.5625 30.515625 -13.230469 Z M 30.515625 -13.230469" transform="translate(242.155 286.457)"/></g></g></g><g fill="#072B5B"><g><g><path d="M 28.167969 -10.882812 L 7.574219 -10.882812 C 6.242188 -10.882812 5.226562 -11.898438 5.226562 -13.230469 C 5.226562 -14.5625 6.242188 -15.578125 7.574219 -15.578125 L 32.808594 -15.578125 L 32.808594 -18.671875 L 7.574219 -18.671875 C 4.429688 -18.671875 2.132812 -16.378906 2.132812 -13.230469 C 2.132812 -10.082031 4.429688 -7.789062 7.574219 -7.789062 L 28.167969 -7.789062 C 29.503906 -7.789062 30.515625 -6.773438 30.515625 -5.441406 C 30.515625 -4.109375 29.503906 -3.09375 28.167969 -3.09375 L 2.933594 -3.09375 L 2.933594 0 L 28.167969 0 C 31.316406 0 33.609375 -2.292969 33.609375 -5.441406 C 33.609375 -8.589844 31.316406 -10.882812 28.167969 -10.882812 Z M 28.167969 -10.882812" transform="translate(277.886 286.457)"/></g></g></g><g fill="#072B5B"><g><g><path d="M 4.90625 0 L 3.953125 0 L 3.953125 -6.75 L 0.15625 -6.75 L 0.15625 -7.703125 L 8.703125 -7.703125 L 8.703125 -6.75 L 4.90625 -6.75 Z M 4.90625 0" transform="translate(138.893 314.587)"/></g></g></g><g fill="#072B5B"><g><g><path d="M 9.828125 0 L 1.078125 0 L 1.078125 -7.703125 L 9.828125 -7.703125 L 9.828125 -6.75 L 2.03125 -6.75 L 2.03125 -4.328125 L 8.9375 -4.328125 L 8.9375 -3.375 L 2.03125 -3.375 L 2.03125 -0.953125 L 9.828125 -0.953125 Z M 9.828125 0" transform="translate(147.75 314.587)"/></g></g></g><g fill="#072B5B"><g><g><path d="M 7.65625 0 C 8.3125 0 8.875 -0.234375 9.34375 -0.703125 C 9.8125 -1.171875 10.046875 -1.734375 10.046875 -2.390625 L 9.09375 -2.390625 C 9.09375 -1.992188 8.953125 -1.65625 8.671875 -1.375 C 8.390625 -1.09375 8.050781 -0.953125 7.65625 -0.953125 L 3.203125 -0.953125 C 2.804688 -0.953125 2.46875 -1.09375 2.1875 -1.375 C 1.90625 -1.65625 1.765625 -1.992188 1.765625 -2.390625 L 1.765625 -5.3125 C 1.765625 -5.707031 1.90625 -6.046875 2.1875 -6.328125 C 2.46875 -6.609375 2.804688 -6.75 3.203125 -6.75 L 7.65625 -6.75 C 8.050781 -6.75 8.390625 -6.609375 8.671875 -6.328125 C 8.953125 -6.046875 9.09375 -5.707031 9.09375 -5.3125 L 10.046875 -5.3125 C 10.046875 -5.976562 9.8125 -6.539062 9.34375 -7 C 8.875 -7.46875 8.3125 -7.703125 7.65625 -7.703125 L 3.203125 -7.703125 C 2.535156 -7.703125 1.96875 -7.46875 1.5 -7 C 1.039062 -6.539062 0.8125 -5.976562 0.8125 -5.3125 L 0.8125 -2.390625 C 0.8125 -1.734375 1.039062 -1.171875 1.5 -0.703125 C 1.96875 -0.234375 2.535156 0 3.203125 0 Z M 7.65625 0" transform="translate(158.382 314.587)"/></g></g></g><g fill="#072B5B"><g><g><path d="M 10.3125 0 L 9.65625 0 L 2.03125 -6.21875 L 2.03125 0 L 1.078125 0 L 1.078125 -7.703125 L 1.71875 -7.703125 L 9.359375 -1.484375 L 9.359375 -7.703125 L 10.3125 -7.703125 Z M 10.3125 0" transform="translate(169.224 314.587)"/></g></g></g><g fill="#072B5B"><g><g><path d="M 7.65625 0 C 8.3125 0 8.875 -0.234375 9.34375 -0.703125 C 9.8125 -1.171875 10.046875 -1.734375 10.046875 -2.390625 L 10.046875 -5.3125 C 10.046875 -5.976562 9.8125 -6.539062 9.34375 -7 C 8.875 -7.46875 8.3125 -7.703125 7.65625 -7.703125 L 3.203125 -7.703125 C 2.535156 -7.703125 1.96875 -7.46875 1.5 -7 C 1.039062 -6.539062 0.8125 -5.976562 0.8125 -5.3125 L 0.8125 -2.390625 C 0.8125 -1.734375 1.039062 -1.171875 1.5 -0.703125 C 1.96875 -0.234375 2.535156 0 3.203125 0 Z M 7.65625 -0.953125 L 3.203125 -0.953125 C 2.804688 -0.953125 2.46875 -1.09375 2.1875 -1.375 C 1.90625 -1.65625 1.765625 -1.992188 1.765625 -2.390625 L 1.765625 -5.3125 C 1.765625 -5.707031 1.90625 -6.046875 2.1875 -6.328125 C 2.46875 -6.609375 2.804688 -6.75 3.203125 -6.75 L 7.65625 -6.75 C 8.050781 -6.75 8.390625 -6.609375 8.671875 -6.328125 C 8.953125 -6.046875 9.09375 -5.707031 9.09375 -5.3125 L 9.09375 -2.390625 C 9.09375 -1.992188 8.953125 -1.65625 8.671875 -1.375 C 8.390625 -1.09375 8.050781 -0.953125 7.65625 -0.953125 Z M 7.65625 -0.953125" transform="translate(180.602 314.587)"/></g></g></g><g fill="#072B5B"><g><g><path d="M 8.265625 0 L 8.265625 -0.953125 L 2.03125 -0.953125 L 2.03125 -7.703125 L 1.078125 -7.703125 L 1.078125 0 Z M 8.265625 0" transform="translate(191.444 314.587)"/></g></g></g><g fill="#072B5B"><g><g><path d="M 7.65625 0 C 8.3125 0 8.875 -0.234375 9.34375 -0.703125 C 9.8125 -1.171875 10.046875 -1.734375 10.046875 -2.390625 L 10.046875 -5.3125 C 10.046875 -5.976562 9.8125 -6.539062 9.34375 -7 C 8.875 -7.46875 8.3125 -7.703125 7.65625 -7.703125 L 3.203125 -7.703125 C 2.535156 -7.703125 1.96875 -7.46875 1.5 -7 C 1.039062 -6.539062 0.8125 -5.976562 0.8125 -5.3125 L 0.8125 -2.390625 C 0.8125 -1.734375 1.039062 -1.171875 1.5 -0.703125 C 1.96875 -0.234375 2.535156 0 3.203125 0 Z M 7.65625 -0.953125 L 3.203125 -0.953125 C 2.804688 -0.953125 2.46875 -1.09375 2.1875 -1.375 C 1.90625 -1.65625 1.765625 -1.992188 1.765625 -2.390625 L 1.765625 -5.3125 C 1.765625 -5.707031 1.90625 -6.046875 2.1875 -6.328125 C 2.46875 -6.609375 2.804688 -6.75 3.203125 -6.75 L 7.65625 -6.75 C 8.050781 -6.75 8.390625 -6.609375 8.671875 -6.328125 C 8.953125 -6.046875 9.09375 -5.707031 9.09375 -5.3125 L 9.09375 -2.390625 C 9.09375 -1.992188 8.953125 -1.65625 8.671875 -1.375 C 8.390625 -1.09375 8.050781 -0.953125 7.65625 -0.953125 Z M 7.65625 -0.953125" transform="translate(200.075 314.587)"/></g></g></g><g fill="#072B5B"><g><g><path d="M 7.65625 0 C 8.289062 0 8.851562 -0.234375 9.34375 -0.703125 C 9.800781 -1.171875 10.035156 -1.734375 10.046875 -2.390625 L 10.046875 -3.21875 C 10.046875 -3.425781 9.972656 -3.601562 9.828125 -3.75 C 9.679688 -3.894531 9.503906 -3.96875 9.296875 -3.96875 L 5.421875 -3.96875 L 5.421875 -3.015625 L 9.09375 -3.015625 L 9.09375 -2.390625 C 9.09375 -2.003906 8.953125 -1.664062 8.671875 -1.375 C 8.378906 -1.09375 8.039062 -0.953125 7.65625 -0.953125 L 3.203125 -0.953125 C 2.804688 -0.953125 2.46875 -1.09375 2.1875 -1.375 C 1.90625 -1.65625 1.765625 -1.992188 1.765625 -2.390625 L 1.765625 -5.3125 C 1.765625 -5.707031 1.90625 -6.046875 2.1875 -6.328125 C 2.46875 -6.609375 2.804688 -6.75 3.203125 -6.75 L 7.65625 -6.75 C 8.050781 -6.75 8.390625 -6.609375 8.671875 -6.328125 C 8.953125 -6.046875 9.09375 -5.707031 9.09375 -5.3125 L 10.046875 -5.3125 C 10.046875 -5.976562 9.8125 -6.539062 9.34375 -7 C 8.875 -7.46875 8.3125 -7.703125 7.65625 -7.703125 L 3.203125 -7.703125 C 2.535156 -7.703125 1.96875 -7.46875 1.5 -7 C 1.039062 -6.539062 0.8125 -5.976562 0.8125 -5.3125 L 0.8125 -2.390625 C 0.8125 -1.734375 1.039062 -1.171875 1.5 -0.703125 C 1.96875 -0.234375 2.535156 0 3.203125 0 Z M 7.65625 0" transform="translate(210.917 314.587)"/></g></g></g><g fill="#072B5B"><g><g><path d="M 2.03125 0 L 2.03125 -7.703125 L 1.078125 -7.703125 L 1.078125 0 Z M 2.03125 0" transform="translate(221.758 314.587)"/></g></g></g><g fill="#072B5B"><g><g><path d="M 11.078125 0 L 9.921875 0 L 8.75 -1.734375 L 2.484375 -1.734375 L 1.3125 0 L 0.15625 0 L 5.359375 -7.703125 L 5.875 -7.703125 Z M 8.109375 -2.703125 L 5.625 -6.375 L 3.140625 -2.703125 Z M 8.109375 -2.703125" transform="translate(224.86 314.587)"/></g></g></g></svg>