<svg xmlns="http://www.w3.org/2000/svg" width="150" viewBox="0 0 150 30" height="30" version="1.0"><defs><clipPath id="a"><path d="M 2.417969 0 L 33 0 L 33 29.03125 L 2.417969 29.03125 Z M 2.417969 0"/></clipPath></defs><g clip-path="url(#a)"><path fill="#072B5B" d="M 2.417969 -0.4375 L 32.257812 -0.4375 L 32.257812 29.402344 L 2.417969 29.402344 L 2.417969 -0.4375"/></g><g fill="#FFF"><g><g><path d="M 9.917969 0 L 8.429688 -4.917969 L 5.457031 -14.835938 L 0.367188 -14.835938 L 5.628906 0 Z M 11.839844 -1.941406 L 9.726562 -8.925781 L 11.515625 -14.835938 L 16.386719 -14.835938 Z M 11.839844 -1.941406" transform="translate(9.321 22.955)"/></g></g></g><g fill="#072B5B"><g><g><path d="M 11.640625 -7.125 L 10.828125 -2.074219 C 10.746094 -1.566406 10.441406 -1.179688 9.933594 -1.179688 L 3.703125 -1.179688 C 3.195312 -1.179688 2.890625 -1.566406 2.808594 -2.074219 L 1.996094 -7.125 L 0.8125 -7.125 L 1.628906 -2.074219 C 1.820312 -0.875 2.503906 0 3.703125 0 L 9.933594 0 C 11.132812 0 11.816406 -0.875 12.007812 -2.074219 L 12.820312 -7.125 Z M 11.640625 -7.125" transform="translate(38.827 17.383)"/></g></g></g><g fill="#072B5B"><g><g><path d="M 10.746094 -7.125 L 2.890625 -7.125 C 1.6875 -7.125 0.8125 -6.25 0.8125 -5.046875 L 0.8125 -2.074219 C 0.8125 -0.875 1.6875 0 2.890625 0 L 10.746094 0 C 11.945312 0 12.820312 -0.875 12.820312 -2.074219 L 12.820312 -5.046875 C 12.820312 -6.25 11.945312 -7.125 10.746094 -7.125 Z M 1.996094 -2.074219 L 1.996094 -5.046875 C 1.996094 -5.554688 2.382812 -5.941406 2.890625 -5.941406 L 10.746094 -5.941406 C 11.253906 -5.941406 11.640625 -5.554688 11.640625 -5.046875 L 11.640625 -2.074219 C 11.640625 -1.566406 11.253906 -1.179688 10.746094 -1.179688 L 2.890625 -1.179688 C 2.382812 -1.179688 1.996094 -1.566406 1.996094 -2.074219 Z M 1.996094 -2.074219" transform="translate(52.462 17.383)"/></g></g></g><g fill="#072B5B"><g><g><path d="M 0.8125 0 L 1.996094 0 L 1.996094 -2.972656 L 9.261719 -2.972656 C 10.632812 -2.972656 11.640625 -1.964844 11.640625 -0.589844 L 11.640625 0 L 12.820312 0 L 12.820312 -0.589844 C 12.820312 -1.660156 12.425781 -2.574219 11.753906 -3.207031 C 12.40625 -3.542969 12.820312 -4.222656 12.820312 -5.046875 C 12.820312 -6.25 11.945312 -7.125 10.746094 -7.125 L 0.8125 -7.125 Z M 1.996094 -4.152344 L 1.996094 -5.941406 L 10.746094 -5.941406 C 11.253906 -5.941406 11.640625 -5.554688 11.640625 -5.046875 C 11.640625 -4.539062 11.253906 -4.152344 10.746094 -4.152344 Z M 1.996094 -4.152344" transform="translate(66.098 17.383)"/></g></g></g><g fill="#072B5B"><g><g><path d="M 6.636719 0 L 7.816406 0 L 7.816406 -5.941406 L 13.636719 -5.941406 L 13.636719 -7.125 L 0.8125 -7.125 L 0.8125 -5.941406 L 6.636719 -5.941406 Z M 6.636719 0" transform="translate(79.733 17.383)"/></g></g></g><g fill="#072B5B"><g><g><path d="M 0.8125 -5.046875 L 0.8125 -2.074219 C 0.8125 -0.875 1.6875 0 2.890625 0 L 12.820312 0 L 12.820312 -1.179688 L 2.890625 -1.179688 C 2.382812 -1.179688 1.996094 -1.566406 1.996094 -2.074219 L 1.996094 -2.972656 L 12.820312 -2.972656 L 12.820312 -4.152344 L 1.996094 -4.152344 L 1.996094 -5.046875 C 1.996094 -5.554688 2.382812 -5.941406 2.890625 -5.941406 L 12.820312 -5.941406 L 12.820312 -7.125 L 2.890625 -7.125 C 1.6875 -7.125 0.8125 -6.25 0.8125 -5.046875 Z M 0.8125 -5.046875" transform="translate(94.183 17.383)"/></g></g></g><g fill="#072B5B"><g><g><path d="M 11.640625 -5.046875 L 11.640625 0 L 12.820312 0 L 12.820312 -5.046875 C 12.820312 -6.25 11.945312 -7.125 10.746094 -7.125 L 2.890625 -7.125 C 1.6875 -7.125 0.8125 -6.25 0.8125 -5.046875 L 0.8125 0 L 1.996094 0 L 1.996094 -5.046875 C 1.996094 -5.554688 2.382812 -5.941406 2.890625 -5.941406 L 10.746094 -5.941406 C 11.253906 -5.941406 11.640625 -5.554688 11.640625 -5.046875 Z M 11.640625 -5.046875" transform="translate(107.818 17.383)"/></g></g></g><g fill="#072B5B"><g><g><path d="M 10.746094 -4.152344 L 2.890625 -4.152344 C 2.382812 -4.152344 1.996094 -4.539062 1.996094 -5.046875 C 1.996094 -5.554688 2.382812 -5.941406 2.890625 -5.941406 L 12.515625 -5.941406 L 12.515625 -7.125 L 2.890625 -7.125 C 1.6875 -7.125 0.8125 -6.25 0.8125 -5.046875 C 0.8125 -3.847656 1.6875 -2.972656 2.890625 -2.972656 L 10.746094 -2.972656 C 11.253906 -2.972656 11.640625 -2.585938 11.640625 -2.074219 C 11.640625 -1.566406 11.253906 -1.179688 10.746094 -1.179688 L 1.121094 -1.179688 L 1.121094 0 L 10.746094 0 C 11.945312 0 12.820312 -0.875 12.820312 -2.074219 C 12.820312 -3.277344 11.945312 -4.152344 10.746094 -4.152344 Z M 10.746094 -4.152344" transform="translate(121.454 17.383)"/></g></g></g></svg>